<?xml version="1.0" encoding="iso-8859-1"?>
<!-- Generator: Adobe Illustrator 19.0.0, SVG Export Plug-In . SVG Version: 6.00 Build 0)  -->
<svg xmlns="http://www.w3.org/2000/svg" xmlns:xlink="http://www.w3.org/1999/xlink" version="1.1" id="Layer_1" x="0px" y="0px" viewBox="0 0 512 512" style="enable-background:new 0 0 512 512;" xml:space="preserve" width="512px" height="512px">
<g>
	<g>
		<g>
			<path d="M128,181.333v117.333h256V181.333C384,151.936,407.936,128,437.333,128h32V96c0-29.397-23.936-53.333-53.333-53.333H96     c-29.397,0-53.333,23.936-53.333,53.333v32h32C104.064,128,128,151.936,128,181.333z" fill="#D80027"/>
			<path d="M480,149.333h-42.667c-17.643,0-32,14.357-32,32v128c0,5.888-4.779,10.667-10.667,10.667H117.333     c-5.888,0-10.667-4.779-10.667-10.667v-128c0-17.643-14.357-32-32-32H32c-17.643,0-32,14.357-32,32v213.333     c0,17.643,14.357,32,32,32h10.667v32c0,5.888,4.779,10.667,10.667,10.667h85.333c5.888,0,10.667-4.779,10.667-10.667v-32h213.333     v32c0,5.888,4.779,10.667,10.667,10.667h85.333c5.888,0,10.667-4.779,10.667-10.667v-32H480c17.643,0,32-14.357,32-32V181.333     C512,163.691,497.643,149.333,480,149.333z" fill="#D80027"/>
		</g>
	</g>
</g>
<g>
</g>
<g>
</g>
<g>
</g>
<g>
</g>
<g>
</g>
<g>
</g>
<g>
</g>
<g>
</g>
<g>
</g>
<g>
</g>
<g>
</g>
<g>
</g>
<g>
</g>
<g>
</g>
<g>
</g>
</svg>
